<svg height="512pt" viewBox="-11 0 512 512.00035" width="512pt" xmlns="http://www.w3.org/2000/svg"><path d="m245 22c-135.308594 0-245 109.691406-245 245 0 19.84375 2.375 39.132812 6.832031 57.609375l193.921875 183.394531c14.351563 2.621094 29.136719 3.996094 44.246094 3.996094 135.308594 0 245-109.691406 245-245s-109.691406-245-245-245zm0 0" fill="#55b160"/><path d="m159.046875 95.6875c-3.277344-2.476562-2.082031-7.566406 1.921875-8.46875 8.769531-1.972656 15.210938-7.292969 15.210938-7.292969 14.839843 11.976563 38.71875 20.0625 76.394531 13.800781h.003906c-3.542969 4.214844-6.84375 8.9375-9.757813 14.257813-1.09375 1.992187-2.15625 3.871094-3.195312 5.640625-38.15625 8.386719-66.667969-7.433594-80.578125-17.9375zm0 0" fill="#f7931e"/><path d="m222.765625 95.785156c-.320313.183594-.644531.355469-.980469.515625-.648437.3125-.890625 1.101563-.523437 1.71875 1.355469 2.277344 2.140625 4.925781 2.140625 7.765625 0 3.921875-1.492188 7.488282-3.925782 10.191406 6.367188-.082031 13.09375-.800781 20.148438-2.351562 1.039062-1.769531 2.101562-3.648438 3.195312-5.640625 2.914063-5.320313 6.214844-10.042969 9.753907-14.257813-11.09375 1.84375-20.984375 2.4375-29.808594 2.058594zm0 0" fill="#f47a21"/><path d="m160.246094 42.371094c4.53125 1.945312 9.898437 3.34375 14.078125 4.25 16.59375 22.867187 50.664062 31.1875 98.457031 30.5-6.976562 4.542968-13.96875 10.351562-20.207031 17.777344-71.460938 11.875-93.296875-27.855469-97.941407-47.867188-.757812-3.277344 2.519532-5.988281 5.613282-4.660156zm0 0" fill="#fbb03b"/><path d="m231.21875 74.824219c-.390625.207031-.785156.40625-1.195312.582031-.59375.253906-.882813.9375-.640626 1.542969.695313 1.734375 1.082032 3.625 1.082032 5.605469 0 6.070312-3.550782 11.292968-8.679688 13.746093-.265625.128907-.457031.335938-.574218.582031 9.210937.519532 19.613281-.03125 31.363281-1.984374 6.238281-7.429688 13.226562-13.234376 20.207031-17.777344-15.304688.222656-29.195312-.488282-41.5625-2.296875zm0 0" fill="#f7931e"/><path d="m310.914062 59.402344c1.066407 1.347656.328126 3.34375-1.359374 3.65625-6.945313 1.292968-22.421876 5.117187-37.960938 15.234375-60.417969.867187-98.941406-12.640625-107.894531-51.773438-2.8125-12.289062 2.074219-20.757812 6.191406-25.417969 1.734375-1.964843 4.902344-1.1718745 5.644531 1.339844 6.054688 20.527344 42.035156 52.722656 83.695313 48.984375 19.988281-1.792969 36 .167969 47.691406 2.941407zm0 0" fill="#f9c55d"/><path d="m310.914062 59.402344-3.992187-5.035156c-11.691406-2.773438-27.703125-4.734376-47.691406-2.941407-9.003907.808594-17.734375-.066406-25.964844-2.132812 3.640625 2.785156 5.996094 7.167969 5.996094 12.105469 0 6.285156-3.804688 11.671874-9.234375 14.003906-.246094.105468-.421875.292968-.546875.507812 12.507812 1.871094 26.582031 2.605469 42.113281 2.382813 15.542969-10.117188 31.019531-13.941407 37.960938-15.234375 1.6875-.3125 2.425781-2.308594 1.359374-3.65625zm0 0" fill="#fbb03b"/><path d="m421.570312 133.964844s32.28125-48.046875-21.261718-76.441406c-1.515625-.804688-3.351563.300781-3.351563 2.019531v4.074219c0 1.726562-1.839843 2.828124-3.359375 2.007812-10.46875-5.628906-44.414062-21.332031-87.683594-15.109375-1.742187.253906-2.566406 2.304687-1.472656 3.683594l4.128906 5.203125c1.066407 1.347656.328126 3.34375-1.359374 3.65625-11.828126 2.203125-48.429688 11.722656-67.910157 47.269531-23.441406 42.785156-33.40625 31.648437-45.125 57.433594 0 0-16.480469 10.550781-31.785156 23.742187.308594-.003906.617187-.019531.929687-.019531 12.769532 0 25.570313 3.027344 37.476563 9.125 25.921875 13.277344 42.460937 38.59375 44.230469 67.714844 1.417968 23.25-2.0625 48.992187-10.339844 76.511719-16.796875 55.839843-49.976562 100.574218-98.613281 132.964843-2.519531 1.675781-5.019531 3.277344-7.503907 4.816407 22.960938 12.425781 48.136719 21.277343 74.777344 25.839843 33.542969-22.71875 75.207032-58.886719 102.570313-110.757812 52.355469-99.242188-7.8125-103.148438 53.527343-197.3125l7.257813-7.757813c-1.859375 1.0625-3.699219 2.300782-5.496094 3.785156v-8.777343c0-4.542969 1.441407-8.96875 4.125-12.640625l10.382813-14.207032c9.757812-14.789062 35.476562-22.390624 43.671875-24.492187zm0 0" fill="#d7dbe2"/><path d="m305.917969 397.699219c16.398437-31.082031 21.757812-52.8125 23.269531-70.894531-49.734375 36.488281-75.960938 15.050781-88.5-5.546876-1.597656 7.699219-3.585938 15.558594-6 23.578126-16.796875 55.835937-49.976562 100.574218-98.613281 132.964843-2.519531 1.675781-5.019531 3.277344-7.503907 4.816407 22.960938 12.421874 48.136719 21.277343 74.777344 25.839843 33.542969-22.71875 75.207032-58.886719 102.570313-110.757812zm0 0" fill="#c9ccd1"/><path d="m246.785156 268.21875c-3.875-63.625-74.484375-99.386719-128.378906-65.355469-37.25 23.523438-80.769531 61.113281-112.199219 119.15625 16.082031 70.097657 62.242188 128.703125 124.164063 161.546875 40.015625-24.964844 84.71875-67.480468 106-138.226562 8.648437-28.742188 11.796875-54.421875 10.414062-77.121094zm0 0" fill="#c9ccd1"/><path d="m246.785156 268.21875c-3.875-63.625-74.484375-99.386719-128.378906-65.355469-37.25 23.523438-80.769531 61.113281-112.199219 119.15625 13.816407 60.21875 49.835938 111.957031 98.96875 146.167969 52.71875-5.195312 89-41.230469 89-41.230469 17.257813-21.792969 32.273438-48.632812 42.195313-81.617187 8.648437-28.742188 11.796875-54.421875 10.414062-77.121094zm0 0" fill="#d7dbe2"/><path d="m246.785156 268.21875c-3.875-63.625-74.484375-99.386719-128.378906-65.355469-37.25 23.523438-80.769531 61.113281-112.199219 119.15625 8.339844 36.347657 24.773438 69.601563 47.289063 97.78125 1.242187-.503906 2.402344-1.03125 3.472656-1.558593 6.347656-3.125 13.621094-3.722657 20.460938-1.902344 70.039062 18.660156 130.21875-24.878906 130.21875-24.878906 6.558593-6.050782 12.972656-12.621094 19.1875-19.722657 3.535156-8.335937 6.742187-17.113281 9.535156-26.394531 8.648437-28.746094 11.796875-54.425781 10.414062-77.125zm0 0" fill="#fff"/><path d="m410.988281 195.304688s-29.855469-16.601563-51.542969 5.082031v-12.75c0-4.917969 1.566407-9.707031 4.46875-13.675781l10.378907-14.207032s36.695312 5.851563 36.695312 35.550782zm0 0" fill="#493d71"/><path d="m378.273438 184.273438c.035156-7.625 6.785156-13.964844 14.652343-13.128907.78125.082031 1.546875-.320312 1.863281-1.042969.273438-.625.574219-1.234374.898438-1.835937-10.066406-6.699219-21.394531-8.511719-21.394531-8.511719l-10.378907 14.207032c-2.902343 3.96875-4.46875 8.761718-4.46875 13.679687v12.746094c6.304688-6.300781 13.292969-9.355469 20.042969-10.539063-.777343-1.699218-1.222656-3.582031-1.214843-5.574218zm0 0" fill="#3d3660"/><path d="m421.570312 133.964844s-35.164062 7.425781-47.277343 25.789062c0 0 37.167969 12.386719 37.320312 41.851563.023438 4.195312 5.265625 6.117187 8.097657 3.023437 11.070312-12.070312 24.699218-36.402344 1.859374-70.664062zm0 0" fill="#574f7f"/><path d="m394.789062 170.101562c4.019532-9.195312 13.421876-15.496093 24.226563-14.910156 5.285156.285156 10.144531 2.265625 14.058594 5.390625-1.511719-8.046875-5.050781-16.933593-11.503907-26.617187 0 0-35.164062 7.421875-47.277343 25.789062 0 0 10.261719 3.425782 20.023437 10.949219.195313-.164063.363282-.359375.472656-.601563zm0 0" fill="#493d71"/><path d="m352.941406 97.328125c-13.445312-1.304687-25.210937 6.546875-26.277344 17.535156-1.066406 10.992188 8.96875 20.960938 22.414063 22.265625 13.445313 1.304688 25.210937-6.546875 26.277344-17.539062 1.066406-10.988282-8.96875-20.957032-22.414063-22.261719zm0 0" fill="#f9f0e1"/><path d="m375.347656 119.578125c.140625-1.441406.082032-2.859375-.140625-4.246094-3.316406-4.644531-8.738281-7.683593-14.878906-7.683593-10.101563 0-18.292969 8.191406-18.292969 18.292968 0 3.953125 1.265625 7.601563 3.398438 10.59375 1.179687.261719 2.394531.460938 3.636718.578125 13.445313 1.304688 25.210938-6.546875 26.277344-17.535156zm0 0" fill="#493d71"/><path d="m353.015625 120.792969c-1.75-3.414063-2.320313-7.121094-1.863281-10.660157-5.445313 3.167969-9.117188 9.054688-9.117188 15.808594 0 3.953125 1.265625 7.601563 3.398438 10.59375 1.179687.261719 2.394531.457032 3.636718.578125 8.164063.792969 15.703126-1.796875 20.609376-6.40625-6.773438.140625-13.359376-3.484375-16.664063-9.914062zm0 0" fill="#3d3660"/><path d="m226.835938 371.738281c3.535156-8.335937 6.742187-17.113281 9.535156-26.398437 2.265625-7.519532 4.140625-14.828125 5.667968-21.929688-.597656.285156-242.261718 116.234375-219.800781-27.835937-5.605469 8.304687-10.976562 17.105469-16.03125 26.445312 8.339844 36.347657 24.773438 69.597657 47.289063 97.78125 1.242187-.503906 2.402344-1.03125 3.472656-1.558593 6.347656-3.125 13.621094-3.726563 20.457031-1.902344 70.042969 18.660156 130.222657-24.878906 130.222657-24.878906 6.558593-6.050782 12.976562-12.621094 19.1875-19.722657zm0 0" fill="#e6ebf4"/></svg>